<svg xmlns="http://www.w3.org/2000/svg" viewBox="0 0 64 80" x="0px" y="0px"><title>logout, turn, off, on, power</title><g><path d="M51.42,34.04A19.42,19.42,0,1,1,24.7,16.049a1.5,1.5,0,0,1,1.124,2.782,16.42,16.42,0,1,0,12.357,0A1.5,1.5,0,0,1,39.3,16.049,19.313,19.313,0,0,1,51.42,34.04ZM32,32.2a1.5,1.5,0,0,0,1.5-1.5V12.04a1.5,1.5,0,0,0-3,0V30.7A1.5,1.5,0,0,0,32,32.2Z"/></g><text x="0" y="79" fill="#000000" font-size="5px" font-weight="bold" font-family="'Helvetica Neue', Helvetica, Arial-Unicode, Arial, Sans-serif">Created by The Icon Z</text><text x="0" y="84" fill="#000000" font-size="5px" font-weight="bold" font-family="'Helvetica Neue', Helvetica, Arial-Unicode, Arial, Sans-serif">from the Noun Project</text></svg>